<?xml version="1.0" encoding="UTF-8" standalone="no"?> <svg xmlns="http://www.w3.org/2000/svg" viewBox="0 0 32 32"><defs><style>.cls-1{fill:#42c6f2;}.cls-2{fill:#00b4e9;}.cls-3{fill:#f1f2f2;}</style></defs><title>credit, card, credit card, creditcard, cc</title><g id="Layer_7" data-name="Layer 7"><polygon class="cls-1" points="3 5 3 27 3 27 28.99 5 3 5"/><polygon class="cls-2" points="3 27 29 27 29 5 28.99 5 3 27"/><rect class="cls-3" x="6" y="8" width="4" height="4"/><path class="cls-3" d="M21,23H6a1,1,0,0,0,0,2H21a1,1,0,0,0,0-2Z"/><path class="cls-3" d="M14,20H6a1,1,0,0,0,0,2h8a1,1,0,0,0,0-2Z"/></g></svg>